<mxfile host="app.diagrams.net" agent="Mozilla/5.0 (Windows NT 10.0; Win64; x64) AppleWebKit/537.36 (KHTML, like Gecko) Chrome/129.0.0.0 Safari/537.36" version="24.7.17">
  <diagram id="C5RBs43oDa-KdzZeNtuy" name="Page-1">
    <mxGraphModel dx="1185" dy="651" grid="1" gridSize="10" guides="1" tooltips="1" connect="1" arrows="1" fold="1" page="1" pageScale="1" pageWidth="827" pageHeight="1169" math="0" shadow="0">
      <root>
        <mxCell id="WIyWlLk6GJQsqaUBKTNV-0" />
        <mxCell id="WIyWlLk6GJQsqaUBKTNV-1" parent="WIyWlLk6GJQsqaUBKTNV-0" />
        <mxCell id="s7MBxmnnZB_xoXd4R-KR-0" value="ESERCIZIO 1 - TO DO LIST&lt;div&gt;&lt;br&gt;&lt;/div&gt;&lt;div&gt;ALGORITMO&lt;/div&gt;&lt;div&gt;&lt;br&gt;&lt;/div&gt;&lt;div style=&quot;text-align: left;&quot;&gt;1. Inizio;&lt;/div&gt;&lt;div style=&quot;text-align: left;&quot;&gt;2. Verifica eventi presenti;&lt;/div&gt;&lt;div style=&quot;text-align: left;&quot;&gt;2b. Se sono scaduti o flaggati come svolti, cancellali;&lt;/div&gt;&lt;div style=&quot;text-align: left;&quot;&gt;2c. Se i promemoria impostati sono uguali al giorno attuale, notifica l&#39;utente;&lt;/div&gt;&lt;div style=&quot;text-align: left;&quot;&gt;3. Filtro secondo input utente, default ordinamento per data;&lt;/div&gt;&lt;div style=&quot;text-align: left;&quot;&gt;4. Visualizzazione eventi presenti;&lt;/div&gt;&lt;div style=&quot;text-align: left;&quot;&gt;5. Input utente;&lt;/div&gt;&lt;div style=&quot;text-align: left;&quot;&gt;6. Verifica se l&#39;input sia aggiungere un evento,&lt;/div&gt;&lt;div style=&quot;text-align: left;&quot;&gt;&amp;nbsp; &amp;nbsp; se vero verifica se gli eventi totali siano maggiori di 39,&lt;br&gt;&lt;/div&gt;&lt;div style=&quot;text-align: left;&quot;&gt;&amp;nbsp; &amp;nbsp; se vero, output che non e&#39; possibile aggiungere ulteriori&lt;/div&gt;&lt;div style=&quot;text-align: left;&quot;&gt;&amp;nbsp; &amp;nbsp; eventi e torna al punti 2, altrimenti prosegui;&lt;/div&gt;&lt;div style=&quot;text-align: left;&quot;&gt;7. Verifica ed esecuzione input, se filtro vai al punto 3, altrimenti torna al punto 2.&lt;/div&gt;" style="text;html=1;align=center;verticalAlign=middle;resizable=0;points=[];autosize=1;strokeColor=none;fillColor=none;" vertex="1" parent="WIyWlLk6GJQsqaUBKTNV-1">
          <mxGeometry x="170" width="450" height="240" as="geometry" />
        </mxCell>
        <mxCell id="s7MBxmnnZB_xoXd4R-KR-3" value="" style="edgeStyle=orthogonalEdgeStyle;rounded=0;orthogonalLoop=1;jettySize=auto;html=1;" edge="1" parent="WIyWlLk6GJQsqaUBKTNV-1" source="s7MBxmnnZB_xoXd4R-KR-1" target="s7MBxmnnZB_xoXd4R-KR-2">
          <mxGeometry relative="1" as="geometry" />
        </mxCell>
        <mxCell id="s7MBxmnnZB_xoXd4R-KR-1" value="Inizio" style="ellipse;whiteSpace=wrap;html=1;" vertex="1" parent="WIyWlLk6GJQsqaUBKTNV-1">
          <mxGeometry y="310" width="80" height="50" as="geometry" />
        </mxCell>
        <mxCell id="s7MBxmnnZB_xoXd4R-KR-51" style="edgeStyle=orthogonalEdgeStyle;rounded=0;orthogonalLoop=1;jettySize=auto;html=1;exitX=1;exitY=0.25;exitDx=0;exitDy=0;entryX=0;entryY=0;entryDx=0;entryDy=0;" edge="1" parent="WIyWlLk6GJQsqaUBKTNV-1" source="s7MBxmnnZB_xoXd4R-KR-2" target="s7MBxmnnZB_xoXd4R-KR-4">
          <mxGeometry relative="1" as="geometry">
            <Array as="points">
              <mxPoint x="400" y="295" />
            </Array>
          </mxGeometry>
        </mxCell>
        <mxCell id="s7MBxmnnZB_xoXd4R-KR-2" value="&lt;div&gt;String input;&lt;/div&gt;&lt;div&gt;int numeroEventi&lt;/div&gt;&lt;div&gt;int = 0;&lt;/div&gt;&lt;div&gt;int data;&lt;/div&gt;int dataEvento;&lt;div&gt;&lt;div&gt;int ora;&lt;/div&gt;&lt;div&gt;String luogo;&lt;/div&gt;&lt;div&gt;Int durata;&amp;nbsp;&lt;/div&gt;&lt;div&gt;Int promemoria;&lt;/div&gt;&lt;div&gt;boolean isImportant;&lt;/div&gt;&lt;div&gt;boolean isFinished;&lt;/div&gt;&lt;/div&gt;" style="whiteSpace=wrap;html=1;" vertex="1" parent="WIyWlLk6GJQsqaUBKTNV-1">
          <mxGeometry x="100" y="255" width="120" height="160" as="geometry" />
        </mxCell>
        <mxCell id="s7MBxmnnZB_xoXd4R-KR-23" value="" style="edgeStyle=orthogonalEdgeStyle;rounded=0;orthogonalLoop=1;jettySize=auto;html=1;" edge="1" parent="WIyWlLk6GJQsqaUBKTNV-1" source="s7MBxmnnZB_xoXd4R-KR-4" target="s7MBxmnnZB_xoXd4R-KR-22">
          <mxGeometry relative="1" as="geometry" />
        </mxCell>
        <mxCell id="s7MBxmnnZB_xoXd4R-KR-4" value="Verifica eventi presenti&lt;div&gt;(loop)&lt;/div&gt;" style="whiteSpace=wrap;html=1;" vertex="1" parent="WIyWlLk6GJQsqaUBKTNV-1">
          <mxGeometry x="400" y="305" width="120" height="60" as="geometry" />
        </mxCell>
        <mxCell id="s7MBxmnnZB_xoXd4R-KR-11" value="" style="edgeStyle=orthogonalEdgeStyle;rounded=0;orthogonalLoop=1;jettySize=auto;html=1;" edge="1" parent="WIyWlLk6GJQsqaUBKTNV-1" source="s7MBxmnnZB_xoXd4R-KR-6" target="s7MBxmnnZB_xoXd4R-KR-10">
          <mxGeometry relative="1" as="geometry" />
        </mxCell>
        <mxCell id="s7MBxmnnZB_xoXd4R-KR-12" value="True" style="edgeLabel;html=1;align=center;verticalAlign=middle;resizable=0;points=[];" vertex="1" connectable="0" parent="s7MBxmnnZB_xoXd4R-KR-11">
          <mxGeometry x="-0.0254" y="1" relative="1" as="geometry">
            <mxPoint as="offset" />
          </mxGeometry>
        </mxCell>
        <mxCell id="s7MBxmnnZB_xoXd4R-KR-29" style="edgeStyle=orthogonalEdgeStyle;rounded=0;orthogonalLoop=1;jettySize=auto;html=1;exitX=0;exitY=0;exitDx=0;exitDy=0;entryX=1;entryY=0.25;entryDx=0;entryDy=0;" edge="1" parent="WIyWlLk6GJQsqaUBKTNV-1" source="s7MBxmnnZB_xoXd4R-KR-6" target="s7MBxmnnZB_xoXd4R-KR-4">
          <mxGeometry relative="1" as="geometry">
            <Array as="points">
              <mxPoint x="680" y="390" />
              <mxPoint x="680" y="320" />
            </Array>
          </mxGeometry>
        </mxCell>
        <mxCell id="s7MBxmnnZB_xoXd4R-KR-30" value="false" style="edgeLabel;html=1;align=center;verticalAlign=middle;resizable=0;points=[];" vertex="1" connectable="0" parent="s7MBxmnnZB_xoXd4R-KR-29">
          <mxGeometry x="-0.3449" y="1" relative="1" as="geometry">
            <mxPoint as="offset" />
          </mxGeometry>
        </mxCell>
        <mxCell id="s7MBxmnnZB_xoXd4R-KR-6" value="promemoria&amp;nbsp;&lt;div&gt;==&lt;div&gt;data&lt;/div&gt;&lt;/div&gt;" style="rhombus;whiteSpace=wrap;html=1;" vertex="1" parent="WIyWlLk6GJQsqaUBKTNV-1">
          <mxGeometry x="707" y="370" width="120" height="80" as="geometry" />
        </mxCell>
        <mxCell id="s7MBxmnnZB_xoXd4R-KR-33" value="" style="edgeStyle=orthogonalEdgeStyle;rounded=0;orthogonalLoop=1;jettySize=auto;html=1;" edge="1" parent="WIyWlLk6GJQsqaUBKTNV-1" source="s7MBxmnnZB_xoXd4R-KR-8" target="s7MBxmnnZB_xoXd4R-KR-32">
          <mxGeometry relative="1" as="geometry" />
        </mxCell>
        <mxCell id="s7MBxmnnZB_xoXd4R-KR-8" value="Filtro secondo input utente, Default ordinamento per data" style="whiteSpace=wrap;html=1;" vertex="1" parent="WIyWlLk6GJQsqaUBKTNV-1">
          <mxGeometry x="320" y="490" width="120" height="60" as="geometry" />
        </mxCell>
        <mxCell id="s7MBxmnnZB_xoXd4R-KR-14" style="edgeStyle=orthogonalEdgeStyle;rounded=0;orthogonalLoop=1;jettySize=auto;html=1;exitX=0.143;exitY=0.212;exitDx=0;exitDy=0;entryX=0.25;entryY=0;entryDx=0;entryDy=0;exitPerimeter=0;" edge="1" parent="WIyWlLk6GJQsqaUBKTNV-1" source="s7MBxmnnZB_xoXd4R-KR-10" target="s7MBxmnnZB_xoXd4R-KR-4">
          <mxGeometry relative="1" as="geometry" />
        </mxCell>
        <mxCell id="s7MBxmnnZB_xoXd4R-KR-10" value="Notifica evento" style="shape=parallelogram;perimeter=parallelogramPerimeter;whiteSpace=wrap;html=1;fixedSize=1;" vertex="1" parent="WIyWlLk6GJQsqaUBKTNV-1">
          <mxGeometry x="707" y="250" width="120" height="60" as="geometry" />
        </mxCell>
        <mxCell id="s7MBxmnnZB_xoXd4R-KR-18" value="" style="edgeStyle=orthogonalEdgeStyle;rounded=0;orthogonalLoop=1;jettySize=auto;html=1;" edge="1" parent="WIyWlLk6GJQsqaUBKTNV-1" source="s7MBxmnnZB_xoXd4R-KR-15" target="s7MBxmnnZB_xoXd4R-KR-17">
          <mxGeometry relative="1" as="geometry" />
        </mxCell>
        <mxCell id="s7MBxmnnZB_xoXd4R-KR-20" value="True" style="edgeLabel;html=1;align=center;verticalAlign=middle;resizable=0;points=[];" vertex="1" connectable="0" parent="s7MBxmnnZB_xoXd4R-KR-18">
          <mxGeometry x="-0.24" y="-3" relative="1" as="geometry">
            <mxPoint as="offset" />
          </mxGeometry>
        </mxCell>
        <mxCell id="s7MBxmnnZB_xoXd4R-KR-26" style="edgeStyle=orthogonalEdgeStyle;rounded=0;orthogonalLoop=1;jettySize=auto;html=1;exitX=1;exitY=0;exitDx=0;exitDy=0;entryX=0;entryY=0.5;entryDx=0;entryDy=0;" edge="1" parent="WIyWlLk6GJQsqaUBKTNV-1" source="s7MBxmnnZB_xoXd4R-KR-15" target="s7MBxmnnZB_xoXd4R-KR-6">
          <mxGeometry relative="1" as="geometry" />
        </mxCell>
        <mxCell id="s7MBxmnnZB_xoXd4R-KR-28" value="false" style="edgeLabel;html=1;align=center;verticalAlign=middle;resizable=0;points=[];" vertex="1" connectable="0" parent="s7MBxmnnZB_xoXd4R-KR-26">
          <mxGeometry x="0.1833" relative="1" as="geometry">
            <mxPoint as="offset" />
          </mxGeometry>
        </mxCell>
        <mxCell id="s7MBxmnnZB_xoXd4R-KR-15" value="data &amp;gt; dataEvento&lt;div&gt;OR&lt;/div&gt;&lt;div&gt;isFinished == true&lt;/div&gt;" style="rhombus;whiteSpace=wrap;html=1;" vertex="1" parent="WIyWlLk6GJQsqaUBKTNV-1">
          <mxGeometry x="480" y="555" width="180" height="90" as="geometry" />
        </mxCell>
        <mxCell id="s7MBxmnnZB_xoXd4R-KR-25" style="edgeStyle=orthogonalEdgeStyle;rounded=0;orthogonalLoop=1;jettySize=auto;html=1;exitX=0.5;exitY=0;exitDx=0;exitDy=0;entryX=0.5;entryY=1;entryDx=0;entryDy=0;" edge="1" parent="WIyWlLk6GJQsqaUBKTNV-1" source="s7MBxmnnZB_xoXd4R-KR-17" target="s7MBxmnnZB_xoXd4R-KR-6">
          <mxGeometry relative="1" as="geometry" />
        </mxCell>
        <mxCell id="s7MBxmnnZB_xoXd4R-KR-17" value="Rimozione evento" style="whiteSpace=wrap;html=1;" vertex="1" parent="WIyWlLk6GJQsqaUBKTNV-1">
          <mxGeometry x="707" y="570" width="120" height="60" as="geometry" />
        </mxCell>
        <mxCell id="s7MBxmnnZB_xoXd4R-KR-24" style="edgeStyle=orthogonalEdgeStyle;rounded=0;orthogonalLoop=1;jettySize=auto;html=1;exitX=0.5;exitY=1;exitDx=0;exitDy=0;entryX=0.5;entryY=0;entryDx=0;entryDy=0;" edge="1" parent="WIyWlLk6GJQsqaUBKTNV-1" source="s7MBxmnnZB_xoXd4R-KR-22" target="s7MBxmnnZB_xoXd4R-KR-15">
          <mxGeometry relative="1" as="geometry" />
        </mxCell>
        <mxCell id="s7MBxmnnZB_xoXd4R-KR-27" value="True" style="edgeLabel;html=1;align=center;verticalAlign=middle;resizable=0;points=[];" vertex="1" connectable="0" parent="s7MBxmnnZB_xoXd4R-KR-24">
          <mxGeometry x="-0.3714" relative="1" as="geometry">
            <mxPoint as="offset" />
          </mxGeometry>
        </mxCell>
        <mxCell id="s7MBxmnnZB_xoXd4R-KR-31" style="edgeStyle=orthogonalEdgeStyle;rounded=0;orthogonalLoop=1;jettySize=auto;html=1;exitX=0;exitY=0.5;exitDx=0;exitDy=0;entryX=0.5;entryY=0;entryDx=0;entryDy=0;" edge="1" parent="WIyWlLk6GJQsqaUBKTNV-1" source="s7MBxmnnZB_xoXd4R-KR-22" target="s7MBxmnnZB_xoXd4R-KR-8">
          <mxGeometry relative="1" as="geometry">
            <mxPoint x="260" y="445" as="targetPoint" />
          </mxGeometry>
        </mxCell>
        <mxCell id="s7MBxmnnZB_xoXd4R-KR-22" value="i &amp;lt;=&amp;nbsp;&lt;div&gt;numeroEventi&lt;/div&gt;" style="rhombus;whiteSpace=wrap;html=1;" vertex="1" parent="WIyWlLk6GJQsqaUBKTNV-1">
          <mxGeometry x="510" y="415" width="120" height="90" as="geometry" />
        </mxCell>
        <mxCell id="s7MBxmnnZB_xoXd4R-KR-35" value="" style="edgeStyle=orthogonalEdgeStyle;rounded=0;orthogonalLoop=1;jettySize=auto;html=1;" edge="1" parent="WIyWlLk6GJQsqaUBKTNV-1" source="s7MBxmnnZB_xoXd4R-KR-32" target="s7MBxmnnZB_xoXd4R-KR-34">
          <mxGeometry relative="1" as="geometry" />
        </mxCell>
        <mxCell id="s7MBxmnnZB_xoXd4R-KR-32" value="Visualizzazione&amp;nbsp;&lt;div&gt;eventi presenti&lt;/div&gt;" style="shape=parallelogram;perimeter=parallelogramPerimeter;whiteSpace=wrap;html=1;fixedSize=1;" vertex="1" parent="WIyWlLk6GJQsqaUBKTNV-1">
          <mxGeometry x="320" y="585" width="120" height="60" as="geometry" />
        </mxCell>
        <mxCell id="s7MBxmnnZB_xoXd4R-KR-37" value="" style="edgeStyle=orthogonalEdgeStyle;rounded=0;orthogonalLoop=1;jettySize=auto;html=1;" edge="1" parent="WIyWlLk6GJQsqaUBKTNV-1" source="s7MBxmnnZB_xoXd4R-KR-34" target="s7MBxmnnZB_xoXd4R-KR-36">
          <mxGeometry relative="1" as="geometry" />
        </mxCell>
        <mxCell id="s7MBxmnnZB_xoXd4R-KR-34" value="input (utente)" style="shape=parallelogram;perimeter=parallelogramPerimeter;whiteSpace=wrap;html=1;fixedSize=1;" vertex="1" parent="WIyWlLk6GJQsqaUBKTNV-1">
          <mxGeometry x="320" y="700" width="120" height="60" as="geometry" />
        </mxCell>
        <mxCell id="s7MBxmnnZB_xoXd4R-KR-43" style="edgeStyle=orthogonalEdgeStyle;rounded=0;orthogonalLoop=1;jettySize=auto;html=1;exitX=1;exitY=0.5;exitDx=0;exitDy=0;entryX=0.5;entryY=0;entryDx=0;entryDy=0;" edge="1" parent="WIyWlLk6GJQsqaUBKTNV-1" source="s7MBxmnnZB_xoXd4R-KR-36" target="s7MBxmnnZB_xoXd4R-KR-38">
          <mxGeometry relative="1" as="geometry">
            <mxPoint x="660" y="730.1428571428571" as="targetPoint" />
          </mxGeometry>
        </mxCell>
        <mxCell id="s7MBxmnnZB_xoXd4R-KR-36" value="input" style="whiteSpace=wrap;html=1;" vertex="1" parent="WIyWlLk6GJQsqaUBKTNV-1">
          <mxGeometry x="510" y="700" width="120" height="60" as="geometry" />
        </mxCell>
        <mxCell id="s7MBxmnnZB_xoXd4R-KR-41" value="" style="edgeStyle=orthogonalEdgeStyle;rounded=0;orthogonalLoop=1;jettySize=auto;html=1;" edge="1" parent="WIyWlLk6GJQsqaUBKTNV-1" source="s7MBxmnnZB_xoXd4R-KR-38" target="s7MBxmnnZB_xoXd4R-KR-40">
          <mxGeometry relative="1" as="geometry" />
        </mxCell>
        <mxCell id="s7MBxmnnZB_xoXd4R-KR-46" value="True" style="edgeLabel;html=1;align=center;verticalAlign=middle;resizable=0;points=[];" vertex="1" connectable="0" parent="s7MBxmnnZB_xoXd4R-KR-41">
          <mxGeometry x="-0.1091" y="-2" relative="1" as="geometry">
            <mxPoint as="offset" />
          </mxGeometry>
        </mxCell>
        <mxCell id="s7MBxmnnZB_xoXd4R-KR-45" value="" style="edgeStyle=orthogonalEdgeStyle;rounded=0;orthogonalLoop=1;jettySize=auto;html=1;" edge="1" parent="WIyWlLk6GJQsqaUBKTNV-1" source="s7MBxmnnZB_xoXd4R-KR-38" target="s7MBxmnnZB_xoXd4R-KR-44">
          <mxGeometry relative="1" as="geometry" />
        </mxCell>
        <mxCell id="s7MBxmnnZB_xoXd4R-KR-47" value="False" style="edgeLabel;html=1;align=center;verticalAlign=middle;resizable=0;points=[];" vertex="1" connectable="0" parent="s7MBxmnnZB_xoXd4R-KR-45">
          <mxGeometry x="-0.3314" y="-3" relative="1" as="geometry">
            <mxPoint as="offset" />
          </mxGeometry>
        </mxCell>
        <mxCell id="s7MBxmnnZB_xoXd4R-KR-38" value="case 1:&lt;div&gt;aggiungere&lt;/div&gt;" style="rhombus;whiteSpace=wrap;html=1;" vertex="1" parent="WIyWlLk6GJQsqaUBKTNV-1">
          <mxGeometry x="727" y="785" width="80" height="80" as="geometry" />
        </mxCell>
        <mxCell id="s7MBxmnnZB_xoXd4R-KR-49" value="" style="edgeStyle=orthogonalEdgeStyle;rounded=0;orthogonalLoop=1;jettySize=auto;html=1;" edge="1" parent="WIyWlLk6GJQsqaUBKTNV-1" source="s7MBxmnnZB_xoXd4R-KR-40" target="s7MBxmnnZB_xoXd4R-KR-48">
          <mxGeometry relative="1" as="geometry" />
        </mxCell>
        <mxCell id="s7MBxmnnZB_xoXd4R-KR-40" value="dataEvento&lt;div&gt;ora&lt;/div&gt;&lt;div&gt;luogo&lt;/div&gt;&lt;div&gt;durata&lt;/div&gt;&lt;div&gt;promemoria&lt;/div&gt;" style="shape=parallelogram;perimeter=parallelogramPerimeter;whiteSpace=wrap;html=1;fixedSize=1;" vertex="1" parent="WIyWlLk6GJQsqaUBKTNV-1">
          <mxGeometry x="510" y="790" width="120" height="70" as="geometry" />
        </mxCell>
        <mxCell id="s7MBxmnnZB_xoXd4R-KR-44" value="case 2:&amp;nbsp;&lt;div&gt;&lt;br&gt;&lt;/div&gt;" style="rhombus;whiteSpace=wrap;html=1;" vertex="1" parent="WIyWlLk6GJQsqaUBKTNV-1">
          <mxGeometry x="727" y="940" width="80" height="80" as="geometry" />
        </mxCell>
        <mxCell id="s7MBxmnnZB_xoXd4R-KR-50" style="edgeStyle=orthogonalEdgeStyle;rounded=0;orthogonalLoop=1;jettySize=auto;html=1;exitX=0.75;exitY=0;exitDx=0;exitDy=0;entryX=0.25;entryY=1;entryDx=0;entryDy=0;" edge="1" parent="WIyWlLk6GJQsqaUBKTNV-1" source="s7MBxmnnZB_xoXd4R-KR-48" target="s7MBxmnnZB_xoXd4R-KR-4">
          <mxGeometry relative="1" as="geometry">
            <mxPoint x="420" y="380" as="targetPoint" />
            <Array as="points">
              <mxPoint x="310" y="805" />
              <mxPoint x="310" y="450" />
              <mxPoint x="430" y="450" />
            </Array>
          </mxGeometry>
        </mxCell>
        <mxCell id="s7MBxmnnZB_xoXd4R-KR-48" value="creazione evento" style="whiteSpace=wrap;html=1;" vertex="1" parent="WIyWlLk6GJQsqaUBKTNV-1">
          <mxGeometry x="310" y="795" width="120" height="60" as="geometry" />
        </mxCell>
      </root>
    </mxGraphModel>
  </diagram>
</mxfile>
